<mxfile host="65bd71144e">
    <diagram id="luQVQrRoaMDzRcy9iX8l" name="Diagram">
        <mxGraphModel dx="2949" dy="3704" grid="1" gridSize="10" guides="1" tooltips="1" connect="1" arrows="1" fold="1" page="1" pageScale="1" pageWidth="827" pageHeight="1169" background="none" math="0" shadow="0">
            <root>
                <mxCell id="0"/>
                <mxCell id="1" parent="0"/>
                <mxCell id="105" value="&lt;font style=&quot;font-size: 40px&quot;&gt;&lt;b&gt;Infra&lt;/b&gt;&lt;/font&gt;" style="rounded=0;whiteSpace=wrap;html=1;fontSize=20;fontColor=#FFFFFF;strokeColor=default;shadow=1;verticalAlign=top;align=center;" vertex="1" parent="1">
                    <mxGeometry x="2525" y="-1030" width="370" height="1000" as="geometry"/>
                </mxCell>
                <mxCell id="94" value="&lt;font style=&quot;font-size: 40px&quot;&gt;&lt;b&gt;Utils&lt;/b&gt;&lt;/font&gt;" style="rounded=0;whiteSpace=wrap;html=1;fontSize=20;fontColor=#FFFFFF;strokeColor=default;shadow=1;verticalAlign=top;align=center;" vertex="1" parent="1">
                    <mxGeometry x="920" y="-1600" width="1980" height="200" as="geometry"/>
                </mxCell>
                <mxCell id="62" value="&lt;font style=&quot;font-size: 40px&quot;&gt;&lt;b&gt;Data&lt;/b&gt;&lt;/font&gt;" style="rounded=0;whiteSpace=wrap;html=1;fontSize=20;fontColor=#FFFFFF;strokeColor=default;shadow=1;verticalAlign=top;align=center;" vertex="1" parent="1">
                    <mxGeometry x="1590" y="-1190" width="360" height="2320" as="geometry"/>
                </mxCell>
                <mxCell id="61" value="&lt;font style=&quot;font-size: 40px&quot;&gt;&lt;b&gt;Presentation&lt;/b&gt;&lt;/font&gt;" style="rounded=0;whiteSpace=wrap;html=1;fontSize=20;fontColor=#FFFFFF;strokeColor=default;shadow=1;verticalAlign=top;align=center;" vertex="1" parent="1">
                    <mxGeometry x="1190" y="-1190" width="370" height="2320" as="geometry"/>
                </mxCell>
                <mxCell id="32" value="&lt;font style=&quot;font-size: 40px&quot;&gt;&lt;b&gt;Main&lt;/b&gt;&lt;/font&gt;" style="rounded=0;whiteSpace=wrap;html=1;fontSize=20;fontColor=#FFFFFF;strokeColor=default;shadow=1;verticalAlign=top;align=center;" vertex="1" parent="1">
                    <mxGeometry x="10" y="-1160" width="920" height="2320" as="geometry"/>
                </mxCell>
                <mxCell id="18" style="edgeStyle=orthogonalEdgeStyle;shape=flexArrow;html=1;exitX=1;exitY=0.5;exitDx=0;exitDy=0;entryX=0;entryY=0.5;entryDx=0;entryDy=0;fontSize=20;fontColor=#FFFFFF;" edge="1" parent="1" source="9" target="10">
                    <mxGeometry relative="1" as="geometry"/>
                </mxCell>
                <mxCell id="19" style="edgeStyle=orthogonalEdgeStyle;shape=flexArrow;html=1;exitX=1;exitY=0.5;exitDx=0;exitDy=0;entryX=0;entryY=0.5;entryDx=0;entryDy=0;fontSize=20;fontColor=#FFFFFF;" edge="1" parent="1" source="9" target="11">
                    <mxGeometry relative="1" as="geometry"/>
                </mxCell>
                <mxCell id="20" style="edgeStyle=orthogonalEdgeStyle;shape=flexArrow;html=1;exitX=1;exitY=0.5;exitDx=0;exitDy=0;entryX=0;entryY=0.5;entryDx=0;entryDy=0;fontSize=20;fontColor=#FFFFFF;" edge="1" parent="1" source="9" target="14">
                    <mxGeometry relative="1" as="geometry"/>
                </mxCell>
                <mxCell id="21" style="edgeStyle=orthogonalEdgeStyle;shape=flexArrow;html=1;exitX=1;exitY=0.5;exitDx=0;exitDy=0;entryX=0;entryY=0.5;entryDx=0;entryDy=0;fontSize=20;fontColor=#FFFFFF;" edge="1" parent="1" source="9" target="15">
                    <mxGeometry relative="1" as="geometry"/>
                </mxCell>
                <mxCell id="9" value="&lt;b&gt;server&lt;br&gt;&lt;/b&gt;" style="rounded=0;whiteSpace=wrap;html=1;fontSize=20;fontColor=#FFFFFF;" vertex="1" parent="1">
                    <mxGeometry x="20" y="44" width="120" height="60" as="geometry"/>
                </mxCell>
                <mxCell id="34" style="edgeStyle=orthogonalEdgeStyle;shape=flexArrow;html=1;exitX=1;exitY=0.5;exitDx=0;exitDy=0;entryX=0;entryY=0.5;entryDx=0;entryDy=0;fontSize=40;fontColor=#FFFFFF;" edge="1" parent="1" source="10" target="23">
                    <mxGeometry relative="1" as="geometry"/>
                </mxCell>
                <mxCell id="10" value="&lt;b&gt;makeRepoFactory&lt;/b&gt;" style="rounded=0;whiteSpace=wrap;html=1;fontSize=20;fontColor=#FFFFFF;verticalAlign=middle;" vertex="1" parent="1">
                    <mxGeometry x="283" y="-1030" width="277" height="80" as="geometry"/>
                </mxCell>
                <mxCell id="35" style="edgeStyle=orthogonalEdgeStyle;shape=flexArrow;html=1;exitX=1;exitY=0.5;exitDx=0;exitDy=0;entryX=0;entryY=0.5;entryDx=0;entryDy=0;fontSize=40;fontColor=#FFFFFF;" edge="1" parent="1" source="11" target="22">
                    <mxGeometry relative="1" as="geometry"/>
                </mxCell>
                <mxCell id="11" value="&lt;b&gt;makeNoteFactory&lt;/b&gt;" style="rounded=0;whiteSpace=wrap;html=1;fontSize=20;fontColor=#FFFFFF;verticalAlign=middle;" vertex="1" parent="1">
                    <mxGeometry x="283" y="-310" width="277" height="80" as="geometry"/>
                </mxCell>
                <mxCell id="36" style="edgeStyle=orthogonalEdgeStyle;shape=flexArrow;html=1;exitX=1;exitY=0.5;exitDx=0;exitDy=0;entryX=0;entryY=0.5;entryDx=0;entryDy=0;fontSize=40;fontColor=#FFFFFF;" edge="1" parent="1" source="14" target="25">
                    <mxGeometry relative="1" as="geometry"/>
                </mxCell>
                <mxCell id="14" value="&lt;b&gt;makeAuthFactory&lt;/b&gt;" style="rounded=0;whiteSpace=wrap;html=1;fontSize=20;fontColor=#FFFFFF;verticalAlign=middle;" vertex="1" parent="1">
                    <mxGeometry x="281.75" y="440" width="277" height="80" as="geometry"/>
                </mxCell>
                <mxCell id="37" style="edgeStyle=orthogonalEdgeStyle;shape=flexArrow;html=1;exitX=1;exitY=0.5;exitDx=0;exitDy=0;entryX=0;entryY=0.5;entryDx=0;entryDy=0;fontSize=40;fontColor=#FFFFFF;" edge="1" parent="1" source="15" target="24">
                    <mxGeometry relative="1" as="geometry"/>
                </mxCell>
                <mxCell id="15" value="&lt;b&gt;makeSecurityKeysFactory&lt;/b&gt;" style="rounded=0;whiteSpace=wrap;html=1;fontSize=20;fontColor=#FFFFFF;verticalAlign=middle;" vertex="1" parent="1">
                    <mxGeometry x="281.75" y="1020" width="277" height="80" as="geometry"/>
                </mxCell>
                <mxCell id="57" style="edgeStyle=orthogonalEdgeStyle;shape=flexArrow;html=1;exitX=1;exitY=0.5;exitDx=0;exitDy=0;entryX=0;entryY=0.5;entryDx=0;entryDy=0;fontSize=40;fontColor=#FFFFFF;" edge="1" parent="1" source="22" target="27">
                    <mxGeometry relative="1" as="geometry"/>
                </mxCell>
                <mxCell id="22" value="&lt;b&gt;NoteRoutes&lt;/b&gt;" style="rounded=0;whiteSpace=wrap;html=1;fontSize=20;fontColor=#FFFFFF;" vertex="1" parent="1">
                    <mxGeometry x="623.5" y="-310" width="290" height="80" as="geometry"/>
                </mxCell>
                <mxCell id="41" style="edgeStyle=orthogonalEdgeStyle;shape=flexArrow;html=1;exitX=1;exitY=0.5;exitDx=0;exitDy=0;entryX=0;entryY=0.5;entryDx=0;entryDy=0;fontSize=40;fontColor=#FFFFFF;" edge="1" parent="1" source="23" target="31">
                    <mxGeometry relative="1" as="geometry"/>
                </mxCell>
                <mxCell id="23" value="&lt;b&gt;UserRoutes&lt;/b&gt;" style="rounded=0;whiteSpace=wrap;html=1;fontSize=20;fontColor=#FFFFFF;" vertex="1" parent="1">
                    <mxGeometry x="623.5" y="-1030" width="290" height="80" as="geometry"/>
                </mxCell>
                <mxCell id="44" style="edgeStyle=orthogonalEdgeStyle;shape=flexArrow;html=1;exitX=1;exitY=0.5;exitDx=0;exitDy=0;entryX=0;entryY=0.5;entryDx=0;entryDy=0;fontSize=40;fontColor=#FFFFFF;" edge="1" parent="1" source="24" target="29">
                    <mxGeometry relative="1" as="geometry"/>
                </mxCell>
                <mxCell id="24" value="&lt;b&gt;SecurityKeysRoutes&lt;/b&gt;" style="rounded=0;whiteSpace=wrap;html=1;fontSize=20;fontColor=#FFFFFF;" vertex="1" parent="1">
                    <mxGeometry x="618.75" y="1020" width="290" height="80" as="geometry"/>
                </mxCell>
                <mxCell id="43" style="edgeStyle=orthogonalEdgeStyle;shape=flexArrow;html=1;exitX=1;exitY=0.5;exitDx=0;exitDy=0;entryX=0;entryY=0.5;entryDx=0;entryDy=0;fontSize=40;fontColor=#FFFFFF;" edge="1" parent="1" source="25" target="30">
                    <mxGeometry relative="1" as="geometry"/>
                </mxCell>
                <mxCell id="25" value="&lt;b&gt;AuthRoutes&lt;/b&gt;" style="rounded=0;whiteSpace=wrap;html=1;fontSize=20;fontColor=#FFFFFF;" vertex="1" parent="1">
                    <mxGeometry x="618.75" y="440" width="290" height="80" as="geometry"/>
                </mxCell>
                <mxCell id="84" style="edgeStyle=orthogonalEdgeStyle;shape=flexArrow;html=1;exitX=1;exitY=0.5;exitDx=0;exitDy=0;entryX=0;entryY=0.5;entryDx=0;entryDy=0;fontSize=40;fontColor=#FFFFFF;" edge="1" parent="1" source="27" target="69">
                    <mxGeometry relative="1" as="geometry">
                        <mxPoint x="1605" y="-290" as="targetPoint"/>
                    </mxGeometry>
                </mxCell>
                <mxCell id="85" style="edgeStyle=orthogonalEdgeStyle;shape=flexArrow;html=1;exitX=1;exitY=0.5;exitDx=0;exitDy=0;entryX=0;entryY=0.5;entryDx=0;entryDy=0;fontSize=40;fontColor=#FFFFFF;" edge="1" parent="1" source="27" target="70">
                    <mxGeometry relative="1" as="geometry">
                        <mxPoint x="1605" y="-170" as="targetPoint"/>
                    </mxGeometry>
                </mxCell>
                <mxCell id="86" style="edgeStyle=orthogonalEdgeStyle;shape=flexArrow;html=1;exitX=1;exitY=0.5;exitDx=0;exitDy=0;entryX=0;entryY=0.5;entryDx=0;entryDy=0;fontSize=40;fontColor=#FFFFFF;" edge="1" parent="1" source="27" target="71">
                    <mxGeometry relative="1" as="geometry">
                        <mxPoint x="1605" y="-50" as="targetPoint"/>
                    </mxGeometry>
                </mxCell>
                <mxCell id="87" style="edgeStyle=orthogonalEdgeStyle;shape=flexArrow;html=1;exitX=1;exitY=0.5;exitDx=0;exitDy=0;entryX=0;entryY=0.5;entryDx=0;entryDy=0;fontSize=40;fontColor=#FFFFFF;entryPerimeter=0;" edge="1" parent="1" source="27" target="72">
                    <mxGeometry relative="1" as="geometry">
                        <mxPoint x="1605" y="70" as="targetPoint"/>
                    </mxGeometry>
                </mxCell>
                <mxCell id="27" value="&lt;b&gt;NoteController&lt;br&gt;&lt;/b&gt;" style="rounded=0;whiteSpace=wrap;html=1;fontSize=20;fontColor=#FFFFFF;strokeColor=default;" vertex="1" parent="1">
                    <mxGeometry x="1220" y="-340" width="290" height="80" as="geometry"/>
                </mxCell>
                <mxCell id="79" style="edgeStyle=orthogonalEdgeStyle;shape=flexArrow;html=1;exitX=1;exitY=0.5;exitDx=0;exitDy=0;entryX=0;entryY=0.5;entryDx=0;entryDy=0;fontSize=40;fontColor=#FFFFFF;" edge="1" parent="1" source="29">
                    <mxGeometry relative="1" as="geometry">
                        <mxPoint x="1614" y="1060" as="targetPoint"/>
                    </mxGeometry>
                </mxCell>
                <mxCell id="80" style="edgeStyle=orthogonalEdgeStyle;shape=flexArrow;html=1;exitX=1;exitY=0.5;exitDx=0;exitDy=0;entryX=0;entryY=0.5;entryDx=0;entryDy=0;fontSize=40;fontColor=#FFFFFF;" edge="1" parent="1" source="29" target="77">
                    <mxGeometry relative="1" as="geometry">
                        <mxPoint x="1614" y="950" as="targetPoint"/>
                    </mxGeometry>
                </mxCell>
                <mxCell id="81" style="edgeStyle=orthogonalEdgeStyle;shape=flexArrow;html=1;exitX=1;exitY=0.5;exitDx=0;exitDy=0;entryX=0;entryY=0.5;entryDx=0;entryDy=0;fontSize=40;fontColor=#FFFFFF;" edge="1" parent="1" source="29" target="76">
                    <mxGeometry relative="1" as="geometry">
                        <mxPoint x="1614" y="840" as="targetPoint"/>
                    </mxGeometry>
                </mxCell>
                <mxCell id="29" value="&lt;b&gt;SecurityKeysController&lt;br&gt;&lt;/b&gt;" style="rounded=0;whiteSpace=wrap;html=1;fontSize=20;fontColor=#FFFFFF;" vertex="1" parent="1">
                    <mxGeometry x="1215.25" y="990" width="290" height="80" as="geometry"/>
                </mxCell>
                <mxCell id="82" style="edgeStyle=orthogonalEdgeStyle;shape=flexArrow;html=1;exitX=1;exitY=0.5;exitDx=0;exitDy=0;entryX=0;entryY=0.5;entryDx=0;entryDy=0;fontSize=40;fontColor=#FFFFFF;" edge="1" parent="1" source="30" target="75">
                    <mxGeometry relative="1" as="geometry"/>
                </mxCell>
                <mxCell id="83" style="edgeStyle=orthogonalEdgeStyle;shape=flexArrow;html=1;exitX=1;exitY=0.5;exitDx=0;exitDy=0;entryX=0;entryY=0.5;entryDx=0;entryDy=0;fontSize=40;fontColor=#FFFFFF;" edge="1" parent="1" source="30" target="74">
                    <mxGeometry relative="1" as="geometry"/>
                </mxCell>
                <mxCell id="115" style="edgeStyle=orthogonalEdgeStyle;shape=flexArrow;html=1;exitX=1;exitY=0.5;exitDx=0;exitDy=0;entryX=0;entryY=0.75;entryDx=0;entryDy=0;fontSize=40;fontColor=#FFFFFF;strokeColor=#FFFFFF;" edge="1" parent="1" source="30" target="66">
                    <mxGeometry relative="1" as="geometry"/>
                </mxCell>
                <mxCell id="116" style="edgeStyle=orthogonalEdgeStyle;shape=flexArrow;html=1;exitX=1;exitY=0.5;exitDx=0;exitDy=0;entryX=0;entryY=0.75;entryDx=0;entryDy=0;fontSize=40;fontColor=#FFFFFF;strokeColor=#FFFFFF;" edge="1" parent="1" source="30" target="67">
                    <mxGeometry relative="1" as="geometry"/>
                </mxCell>
                <mxCell id="30" value="&lt;b&gt;AuthController&lt;br&gt;&lt;/b&gt;" style="rounded=0;whiteSpace=wrap;html=1;fontSize=20;fontColor=#FFFFFF;" vertex="1" parent="1">
                    <mxGeometry x="1215.25" y="410" width="290" height="80" as="geometry"/>
                </mxCell>
                <mxCell id="88" style="edgeStyle=orthogonalEdgeStyle;shape=flexArrow;html=1;exitX=1;exitY=0.5;exitDx=0;exitDy=0;entryX=0;entryY=0.5;entryDx=0;entryDy=0;fontSize=40;fontColor=#FFFFFF;" edge="1" parent="1" source="31" target="66">
                    <mxGeometry relative="1" as="geometry">
                        <mxPoint x="1605" y="-400" as="targetPoint"/>
                    </mxGeometry>
                </mxCell>
                <mxCell id="89" style="edgeStyle=orthogonalEdgeStyle;shape=flexArrow;html=1;exitX=1;exitY=0.5;exitDx=0;exitDy=0;entryX=0;entryY=0.5;entryDx=0;entryDy=0;fontSize=40;fontColor=#FFFFFF;" edge="1" parent="1" source="31" target="68">
                    <mxGeometry relative="1" as="geometry">
                        <mxPoint x="1605" y="-520" as="targetPoint"/>
                    </mxGeometry>
                </mxCell>
                <mxCell id="90" style="edgeStyle=orthogonalEdgeStyle;shape=flexArrow;html=1;exitX=1;exitY=0.5;exitDx=0;exitDy=0;entryX=0;entryY=0.5;entryDx=0;entryDy=0;fontSize=40;fontColor=#FFFFFF;" edge="1" parent="1" source="31" target="67">
                    <mxGeometry relative="1" as="geometry">
                        <mxPoint x="1605" y="-654.0000000000005" as="targetPoint"/>
                    </mxGeometry>
                </mxCell>
                <mxCell id="91" style="edgeStyle=orthogonalEdgeStyle;shape=flexArrow;html=1;exitX=1;exitY=0.5;exitDx=0;exitDy=0;entryX=0;entryY=0.5;entryDx=0;entryDy=0;fontSize=40;fontColor=#FFFFFF;" edge="1" parent="1" source="31" target="65">
                    <mxGeometry relative="1" as="geometry">
                        <mxPoint x="1605" y="-800" as="targetPoint"/>
                    </mxGeometry>
                </mxCell>
                <mxCell id="92" style="edgeStyle=orthogonalEdgeStyle;shape=flexArrow;html=1;exitX=1;exitY=0.5;exitDx=0;exitDy=0;entryX=0;entryY=0.5;entryDx=0;entryDy=0;fontSize=40;fontColor=#FFFFFF;" edge="1" parent="1" source="31" target="64">
                    <mxGeometry relative="1" as="geometry">
                        <mxPoint x="1605" y="-940" as="targetPoint"/>
                    </mxGeometry>
                </mxCell>
                <mxCell id="93" style="edgeStyle=orthogonalEdgeStyle;shape=flexArrow;html=1;exitX=1;exitY=0.5;exitDx=0;exitDy=0;entryX=0;entryY=0.5;entryDx=0;entryDy=0;fontSize=40;fontColor=#FFFFFF;" edge="1" parent="1" source="31" target="59">
                    <mxGeometry relative="1" as="geometry">
                        <mxPoint x="1605" y="-1080" as="targetPoint"/>
                    </mxGeometry>
                </mxCell>
                <mxCell id="31" value="&lt;b&gt;UserController&lt;br&gt;&lt;/b&gt;" style="rounded=0;whiteSpace=wrap;html=1;fontSize=20;fontColor=#FFFFFF;" vertex="1" parent="1">
                    <mxGeometry x="1220" y="-1060" width="290" height="80" as="geometry"/>
                </mxCell>
                <mxCell id="59" value="&lt;b&gt;CreateUserUseCase&lt;br&gt;&lt;/b&gt;" style="rounded=0;whiteSpace=wrap;html=1;fontSize=20;fontColor=#FFFFFF;" vertex="1" parent="1">
                    <mxGeometry x="1625" y="-1120" width="290" height="80" as="geometry"/>
                </mxCell>
                <mxCell id="64" value="&lt;b&gt;DeleteUserUseCase&lt;br&gt;&lt;/b&gt;" style="rounded=0;whiteSpace=wrap;html=1;fontSize=20;fontColor=#FFFFFF;" vertex="1" parent="1">
                    <mxGeometry x="1625" y="-990" width="290" height="80" as="geometry"/>
                </mxCell>
                <mxCell id="65" value="&lt;b&gt;GetAllUsersUseCase&lt;br&gt;&lt;/b&gt;" style="rounded=0;whiteSpace=wrap;html=1;fontSize=20;fontColor=#FFFFFF;" vertex="1" parent="1">
                    <mxGeometry x="1625" y="-860" width="290" height="80" as="geometry"/>
                </mxCell>
                <mxCell id="155" style="edgeStyle=orthogonalEdgeStyle;shape=flexArrow;html=1;exitX=1;exitY=0.25;exitDx=0;exitDy=0;entryX=0.5;entryY=1;entryDx=0;entryDy=0;fontSize=40;fontColor=#FFFFFF;strokeColor=#FFFFFF;" edge="1" parent="1" source="66" target="152">
                    <mxGeometry relative="1" as="geometry">
                        <Array as="points">
                            <mxPoint x="2180" y="-420"/>
                            <mxPoint x="2180" y="-1300"/>
                            <mxPoint x="1780" y="-1300"/>
                        </Array>
                    </mxGeometry>
                </mxCell>
                <mxCell id="66" value="&lt;b&gt;GetUserByIdUseCase&lt;br&gt;&lt;/b&gt;" style="rounded=0;whiteSpace=wrap;html=1;fontSize=20;fontColor=#FFFFFF;" vertex="1" parent="1">
                    <mxGeometry x="1625" y="-470" width="290" height="80" as="geometry"/>
                </mxCell>
                <mxCell id="67" value="&lt;b&gt;GetUserByEmailUseCase&lt;br&gt;&lt;/b&gt;" style="rounded=0;whiteSpace=wrap;html=1;fontSize=20;fontColor=#FFFFFF;" vertex="1" parent="1">
                    <mxGeometry x="1625" y="-600" width="290" height="80" as="geometry"/>
                </mxCell>
                <mxCell id="68" value="&lt;b&gt;UpdateUserUseCase&lt;br&gt;&lt;/b&gt;" style="rounded=0;whiteSpace=wrap;html=1;fontSize=20;fontColor=#FFFFFF;" vertex="1" parent="1">
                    <mxGeometry x="1625" y="-730" width="290" height="80" as="geometry"/>
                </mxCell>
                <mxCell id="69" value="&lt;b&gt;CreateNoteUseCase&lt;br&gt;&lt;/b&gt;" style="rounded=0;whiteSpace=wrap;html=1;fontSize=20;fontColor=#FFFFFF;" vertex="1" parent="1">
                    <mxGeometry x="1625" y="-340" width="290" height="80" as="geometry"/>
                </mxCell>
                <mxCell id="70" value="&lt;b&gt;DeleteNoteUseCase&lt;br&gt;&lt;/b&gt;" style="rounded=0;whiteSpace=wrap;html=1;fontSize=20;fontColor=#FFFFFF;" vertex="1" parent="1">
                    <mxGeometry x="1625" y="-210" width="290" height="80" as="geometry"/>
                </mxCell>
                <mxCell id="71" value="&lt;b&gt;GetAllNotesUseCase&lt;br&gt;&lt;/b&gt;" style="rounded=0;whiteSpace=wrap;html=1;fontSize=20;fontColor=#FFFFFF;" vertex="1" parent="1">
                    <mxGeometry x="1625" y="-100" width="290" height="80" as="geometry"/>
                </mxCell>
                <mxCell id="72" value="&lt;b&gt;UpdateNoteUseCase&lt;br&gt;&lt;/b&gt;" style="rounded=0;whiteSpace=wrap;html=1;fontSize=20;fontColor=#FFFFFF;" vertex="1" parent="1">
                    <mxGeometry x="1625" y="30" width="290" height="80" as="geometry"/>
                </mxCell>
                <mxCell id="74" value="&lt;b&gt;VerifyPasswordUseCase&lt;br&gt;&lt;/b&gt;" style="rounded=0;whiteSpace=wrap;html=1;fontSize=20;fontColor=#FFFFFF;" vertex="1" parent="1">
                    <mxGeometry x="1620" y="379" width="290" height="80" as="geometry"/>
                </mxCell>
                <mxCell id="75" value="&lt;b&gt;GenerateTokenUseCase&lt;br&gt;&lt;/b&gt;" style="rounded=0;whiteSpace=wrap;html=1;fontSize=20;fontColor=#FFFFFF;" vertex="1" parent="1">
                    <mxGeometry x="1620" y="499" width="290" height="80" as="geometry"/>
                </mxCell>
                <mxCell id="76" value="&lt;b&gt;CreateSecurityKeyUseCase&lt;br&gt;&lt;/b&gt;" style="rounded=0;whiteSpace=wrap;html=1;fontSize=20;fontColor=#FFFFFF;" vertex="1" parent="1">
                    <mxGeometry x="1634" y="800" width="290" height="80" as="geometry"/>
                </mxCell>
                <mxCell id="77" value="&lt;b&gt;GetAllSecurityKeysUseCase&lt;br&gt;&lt;/b&gt;" style="rounded=0;whiteSpace=wrap;html=1;fontSize=20;fontColor=#FFFFFF;" vertex="1" parent="1">
                    <mxGeometry x="1634" y="910" width="290" height="80" as="geometry"/>
                </mxCell>
                <mxCell id="78" value="&lt;b&gt;EditPasswordUseCase&lt;br&gt;&lt;/b&gt;" style="rounded=0;whiteSpace=wrap;html=1;fontSize=20;fontColor=#FFFFFF;" vertex="1" parent="1">
                    <mxGeometry x="1634" y="1020" width="290" height="80" as="geometry"/>
                </mxCell>
                <mxCell id="97" style="edgeStyle=orthogonalEdgeStyle;shape=flexArrow;html=1;exitX=0.5;exitY=1;exitDx=0;exitDy=0;fontSize=40;fontColor=#FFFFFF;entryX=1;entryY=0.25;entryDx=0;entryDy=0;" edge="1" parent="1" source="96" target="59">
                    <mxGeometry relative="1" as="geometry"/>
                </mxCell>
                <mxCell id="96" value="&lt;b&gt;UserValidator&lt;br&gt;&lt;/b&gt;" style="rounded=0;whiteSpace=wrap;html=1;fontSize=20;fontColor=#FFFFFF;" vertex="1" parent="1">
                    <mxGeometry x="1950" y="-1510" width="290" height="80" as="geometry"/>
                </mxCell>
                <mxCell id="99" style="edgeStyle=orthogonalEdgeStyle;shape=flexArrow;html=1;exitX=0.5;exitY=1;exitDx=0;exitDy=0;entryX=1;entryY=0.375;entryDx=0;entryDy=0;fontSize=40;fontColor=#FFFFFF;entryPerimeter=0;" edge="1" parent="1" source="98" target="69">
                    <mxGeometry relative="1" as="geometry"/>
                </mxCell>
                <mxCell id="98" value="&lt;b&gt;NoteValidator&lt;br&gt;&lt;/b&gt;" style="rounded=0;whiteSpace=wrap;html=1;fontSize=20;fontColor=#FFFFFF;" vertex="1" parent="1">
                    <mxGeometry x="2260" y="-1510" width="290" height="80" as="geometry"/>
                </mxCell>
                <mxCell id="123" style="edgeStyle=orthogonalEdgeStyle;shape=flexArrow;html=1;exitX=0;exitY=0.5;exitDx=0;exitDy=0;entryX=0.5;entryY=0;entryDx=0;entryDy=0;fontSize=40;fontColor=#FFFFFF;strokeColor=#FFFFFF;" edge="1" parent="1" source="101" target="106">
                    <mxGeometry relative="1" as="geometry">
                        <Array as="points">
                            <mxPoint x="2905" y="-760"/>
                            <mxPoint x="2905" y="-830"/>
                            <mxPoint x="2705" y="-830"/>
                        </Array>
                    </mxGeometry>
                </mxCell>
                <mxCell id="101" value="&lt;b&gt;Mongoose&lt;br&gt;&lt;/b&gt;" style="rounded=0;whiteSpace=wrap;html=1;fontSize=20;fontColor=#FFFFFF;" vertex="1" parent="1">
                    <mxGeometry x="2960" y="-800" width="290" height="80" as="geometry"/>
                </mxCell>
                <mxCell id="166" style="edgeStyle=orthogonalEdgeStyle;shape=flexArrow;html=1;exitX=0.5;exitY=1;exitDx=0;exitDy=0;entryX=0.5;entryY=0;entryDx=0;entryDy=0;fontSize=40;fontColor=#FFFFFF;strokeColor=#FFFFFF;" edge="1" parent="1" source="102" target="107">
                    <mxGeometry relative="1" as="geometry"/>
                </mxCell>
                <mxCell id="102" value="&lt;b&gt;Mongo&lt;br&gt;&lt;/b&gt;" style="rounded=0;whiteSpace=wrap;html=1;fontSize=20;fontColor=#FFFFFF;" vertex="1" parent="1">
                    <mxGeometry x="1290" y="-1720" width="290" height="80" as="geometry"/>
                </mxCell>
                <mxCell id="110" style="edgeStyle=orthogonalEdgeStyle;shape=flexArrow;html=1;exitX=0;exitY=0.5;exitDx=0;exitDy=0;entryX=1;entryY=0.5;entryDx=0;entryDy=0;fontSize=40;fontColor=#FFFFFF;" edge="1" parent="1" source="103" target="108">
                    <mxGeometry relative="1" as="geometry"/>
                </mxCell>
                <mxCell id="103" value="&lt;b&gt;BCrypt&lt;br&gt;&lt;/b&gt;" style="rounded=0;whiteSpace=wrap;html=1;fontSize=20;fontColor=#FFFFFF;" vertex="1" parent="1">
                    <mxGeometry x="2960" y="-930" width="290" height="80" as="geometry"/>
                </mxCell>
                <mxCell id="121" style="edgeStyle=orthogonalEdgeStyle;shape=flexArrow;html=1;exitX=0;exitY=0.5;exitDx=0;exitDy=0;entryX=1;entryY=0.5;entryDx=0;entryDy=0;fontSize=40;fontColor=#FFFFFF;strokeColor=#FFFFFF;" edge="1" parent="1" source="104" target="109">
                    <mxGeometry relative="1" as="geometry">
                        <Array as="points">
                            <mxPoint x="2950" y="-100"/>
                            <mxPoint x="2950" y="-100"/>
                        </Array>
                    </mxGeometry>
                </mxCell>
                <mxCell id="104" value="&lt;b&gt;JsonWebToken&lt;br&gt;&lt;/b&gt;" style="rounded=0;whiteSpace=wrap;html=1;fontSize=20;fontColor=#FFFFFF;" vertex="1" parent="1">
                    <mxGeometry x="2980" y="-140" width="290" height="80" as="geometry"/>
                </mxCell>
                <mxCell id="106" value="&lt;b&gt;schemas&lt;br&gt;&lt;/b&gt;" style="rounded=0;whiteSpace=wrap;html=1;fontSize=20;fontColor=#FFFFFF;verticalAlign=top;" vertex="1" parent="1">
                    <mxGeometry x="2560" y="-800" width="290" height="300" as="geometry"/>
                </mxCell>
                <mxCell id="167" style="edgeStyle=orthogonalEdgeStyle;shape=flexArrow;html=1;exitX=0.5;exitY=1;exitDx=0;exitDy=0;entryX=0.75;entryY=0;entryDx=0;entryDy=0;fontSize=40;fontColor=#FFFFFF;strokeColor=#FFFFFF;" edge="1" parent="1" source="107" target="9">
                    <mxGeometry relative="1" as="geometry">
                        <Array as="points">
                            <mxPoint x="1435" y="-1300"/>
                            <mxPoint x="110" y="-1300"/>
                        </Array>
                    </mxGeometry>
                </mxCell>
                <mxCell id="107" value="&lt;b&gt;MongoConnector&lt;br&gt;&lt;/b&gt;" style="rounded=0;whiteSpace=wrap;html=1;fontSize=20;fontColor=#FFFFFF;" vertex="1" parent="1">
                    <mxGeometry x="1290" y="-1510" width="290" height="80" as="geometry"/>
                </mxCell>
                <mxCell id="113" style="edgeStyle=orthogonalEdgeStyle;shape=flexArrow;html=1;exitX=0;exitY=0.5;exitDx=0;exitDy=0;fontSize=40;fontColor=#FFFFFF;" edge="1" parent="1" source="108">
                    <mxGeometry relative="1" as="geometry">
                        <mxPoint x="1915" y="-1070" as="targetPoint"/>
                        <Array as="points">
                            <mxPoint x="2330" y="-890"/>
                            <mxPoint x="2330" y="-1070"/>
                        </Array>
                    </mxGeometry>
                </mxCell>
                <mxCell id="148" style="edgeStyle=orthogonalEdgeStyle;shape=flexArrow;html=1;exitX=0;exitY=0.5;exitDx=0;exitDy=0;entryX=1;entryY=0.25;entryDx=0;entryDy=0;fontSize=40;fontColor=#FFFFFF;strokeColor=#FFFFFF;" edge="1" parent="1" source="108" target="74">
                    <mxGeometry relative="1" as="geometry">
                        <Array as="points">
                            <mxPoint x="2340" y="-890"/>
                            <mxPoint x="2340" y="429"/>
                        </Array>
                    </mxGeometry>
                </mxCell>
                <mxCell id="108" value="&lt;b&gt;BCryptAdapter&lt;br&gt;&lt;/b&gt;" style="rounded=0;whiteSpace=wrap;html=1;fontSize=20;fontColor=#FFFFFF;" vertex="1" parent="1">
                    <mxGeometry x="2560" y="-930" width="290" height="80" as="geometry"/>
                </mxCell>
                <mxCell id="149" style="edgeStyle=orthogonalEdgeStyle;shape=flexArrow;html=1;exitX=0;exitY=0.5;exitDx=0;exitDy=0;entryX=1;entryY=0.5;entryDx=0;entryDy=0;fontSize=40;fontColor=#FFFFFF;strokeColor=#FFFFFF;" edge="1" parent="1" source="109" target="75">
                    <mxGeometry relative="1" as="geometry">
                        <Array as="points">
                            <mxPoint x="2500" y="-100"/>
                            <mxPoint x="2500" y="569"/>
                        </Array>
                    </mxGeometry>
                </mxCell>
                <mxCell id="153" style="edgeStyle=orthogonalEdgeStyle;shape=flexArrow;html=1;exitX=0;exitY=0.5;exitDx=0;exitDy=0;entryX=0.75;entryY=1;entryDx=0;entryDy=0;fontSize=40;fontColor=#FFFFFF;strokeColor=#FFFFFF;" edge="1" parent="1" source="109" target="152">
                    <mxGeometry relative="1" as="geometry">
                        <Array as="points">
                            <mxPoint x="2370" y="-100"/>
                            <mxPoint x="2370" y="-1350"/>
                            <mxPoint x="1853" y="-1350"/>
                        </Array>
                    </mxGeometry>
                </mxCell>
                <mxCell id="109" value="&lt;b&gt;JwtAdapter&lt;br&gt;&lt;/b&gt;" style="rounded=0;whiteSpace=wrap;html=1;fontSize=20;fontColor=#FFFFFF;" vertex="1" parent="1">
                    <mxGeometry x="2560" y="-140" width="290" height="80" as="geometry"/>
                </mxCell>
                <mxCell id="160" style="edgeStyle=orthogonalEdgeStyle;shape=flexArrow;html=1;exitX=0.5;exitY=1;exitDx=0;exitDy=0;entryX=1;entryY=0.75;entryDx=0;entryDy=0;fontSize=40;fontColor=#FFFFFF;strokeColor=#FFFFFF;" edge="1" parent="1" source="119" target="76">
                    <mxGeometry relative="1" as="geometry">
                        <Array as="points">
                            <mxPoint x="2725" y="-1340"/>
                            <mxPoint x="2450" y="-1340"/>
                            <mxPoint x="2450" y="860"/>
                        </Array>
                    </mxGeometry>
                </mxCell>
                <mxCell id="119" value="&lt;b&gt;SecuritKeyValidator&lt;br&gt;&lt;/b&gt;" style="rounded=0;whiteSpace=wrap;html=1;fontSize=20;fontColor=#FFFFFF;" vertex="1" parent="1">
                    <mxGeometry x="2580" y="-1510" width="290" height="80" as="geometry"/>
                </mxCell>
                <mxCell id="134" style="edgeStyle=orthogonalEdgeStyle;shape=flexArrow;html=1;exitX=1;exitY=0.5;exitDx=0;exitDy=0;entryX=1;entryY=0.5;entryDx=0;entryDy=0;fontSize=40;fontColor=#FFFFFF;strokeColor=#FFFFFF;" edge="1" parent="1" source="124" target="128">
                    <mxGeometry relative="1" as="geometry">
                        <Array as="points">
                            <mxPoint x="2950" y="-715"/>
                            <mxPoint x="2950" y="-385"/>
                        </Array>
                    </mxGeometry>
                </mxCell>
                <mxCell id="124" value="&lt;b&gt;noteSchema&lt;br&gt;&lt;/b&gt;" style="rounded=0;whiteSpace=wrap;html=1;fontSize=20;fontColor=#FFFFFF;" vertex="1" parent="1">
                    <mxGeometry x="2570" y="-750" width="270" height="70" as="geometry"/>
                </mxCell>
                <mxCell id="135" style="edgeStyle=orthogonalEdgeStyle;shape=flexArrow;html=1;exitX=1;exitY=0.5;exitDx=0;exitDy=0;entryX=1;entryY=0.5;entryDx=0;entryDy=0;fontSize=40;fontColor=#FFFFFF;strokeColor=#FFFFFF;" edge="1" parent="1" source="125" target="129">
                    <mxGeometry relative="1" as="geometry">
                        <Array as="points">
                            <mxPoint x="2920" y="-635"/>
                            <mxPoint x="2920" y="-305"/>
                        </Array>
                    </mxGeometry>
                </mxCell>
                <mxCell id="125" value="&lt;b&gt;userSchema&lt;br&gt;&lt;/b&gt;" style="rounded=0;whiteSpace=wrap;html=1;fontSize=20;fontColor=#FFFFFF;" vertex="1" parent="1">
                    <mxGeometry x="2570" y="-670" width="270" height="70" as="geometry"/>
                </mxCell>
                <mxCell id="136" style="edgeStyle=orthogonalEdgeStyle;shape=flexArrow;html=1;exitX=1;exitY=0.5;exitDx=0;exitDy=0;entryX=1;entryY=0.5;entryDx=0;entryDy=0;fontSize=40;fontColor=#FFFFFF;strokeColor=#FFFFFF;" edge="1" parent="1" source="126" target="130">
                    <mxGeometry relative="1" as="geometry">
                        <Array as="points">
                            <mxPoint x="2890" y="-550"/>
                            <mxPoint x="2890" y="-220"/>
                        </Array>
                    </mxGeometry>
                </mxCell>
                <mxCell id="126" value="&lt;b&gt;securityKeySchema&lt;br&gt;&lt;/b&gt;" style="rounded=0;whiteSpace=wrap;html=1;fontSize=20;fontColor=#FFFFFF;" vertex="1" parent="1">
                    <mxGeometry x="2570" y="-585" width="270" height="70" as="geometry"/>
                </mxCell>
                <mxCell id="127" value="&lt;b&gt;repositories&lt;br&gt;&lt;/b&gt;" style="rounded=0;whiteSpace=wrap;html=1;fontSize=20;fontColor=#FFFFFF;verticalAlign=top;" vertex="1" parent="1">
                    <mxGeometry x="2560" y="-470" width="290" height="300" as="geometry"/>
                </mxCell>
                <mxCell id="143" style="edgeStyle=orthogonalEdgeStyle;shape=flexArrow;html=1;exitX=0;exitY=0.5;exitDx=0;exitDy=0;entryX=1;entryY=0.75;entryDx=0;entryDy=0;fontSize=40;fontColor=#FFFFFF;strokeColor=#FFFFFF;" edge="1" parent="1" source="128" target="69">
                    <mxGeometry relative="1" as="geometry"/>
                </mxCell>
                <mxCell id="144" style="edgeStyle=orthogonalEdgeStyle;shape=flexArrow;html=1;exitX=0;exitY=0.5;exitDx=0;exitDy=0;entryX=1;entryY=0.5;entryDx=0;entryDy=0;fontSize=40;fontColor=#FFFFFF;strokeColor=#FFFFFF;" edge="1" parent="1" source="128" target="70">
                    <mxGeometry relative="1" as="geometry"/>
                </mxCell>
                <mxCell id="145" style="edgeStyle=orthogonalEdgeStyle;shape=flexArrow;html=1;exitX=0;exitY=0.5;exitDx=0;exitDy=0;entryX=1;entryY=0.5;entryDx=0;entryDy=0;fontSize=40;fontColor=#FFFFFF;strokeColor=#FFFFFF;" edge="1" parent="1" source="128" target="71">
                    <mxGeometry relative="1" as="geometry"/>
                </mxCell>
                <mxCell id="146" style="edgeStyle=orthogonalEdgeStyle;shape=flexArrow;html=1;exitX=0;exitY=0.5;exitDx=0;exitDy=0;entryX=1;entryY=0.5;entryDx=0;entryDy=0;fontSize=40;fontColor=#FFFFFF;strokeColor=#FFFFFF;" edge="1" parent="1" source="128" target="72">
                    <mxGeometry relative="1" as="geometry"/>
                </mxCell>
                <mxCell id="128" value="&lt;b&gt;NoteRepository&lt;br&gt;&lt;/b&gt;" style="rounded=0;whiteSpace=wrap;html=1;fontSize=20;fontColor=#FFFFFF;" vertex="1" parent="1">
                    <mxGeometry x="2570" y="-420" width="270" height="70" as="geometry"/>
                </mxCell>
                <mxCell id="137" style="edgeStyle=orthogonalEdgeStyle;shape=flexArrow;html=1;exitX=0;exitY=0.5;exitDx=0;exitDy=0;fontSize=40;fontColor=#FFFFFF;strokeColor=#FFFFFF;" edge="1" parent="1" source="129">
                    <mxGeometry relative="1" as="geometry">
                        <mxPoint x="1910" y="-1050" as="targetPoint"/>
                        <Array as="points">
                            <mxPoint x="2242" y="-305"/>
                            <mxPoint x="2242" y="-1050"/>
                        </Array>
                    </mxGeometry>
                </mxCell>
                <mxCell id="138" style="edgeStyle=orthogonalEdgeStyle;shape=flexArrow;html=1;exitX=0;exitY=0.5;exitDx=0;exitDy=0;entryX=1;entryY=0.5;entryDx=0;entryDy=0;fontSize=40;fontColor=#FFFFFF;strokeColor=#FFFFFF;" edge="1" parent="1" source="129" target="64">
                    <mxGeometry relative="1" as="geometry"/>
                </mxCell>
                <mxCell id="139" style="edgeStyle=orthogonalEdgeStyle;shape=flexArrow;html=1;exitX=0;exitY=0.5;exitDx=0;exitDy=0;entryX=1;entryY=0.5;entryDx=0;entryDy=0;fontSize=40;fontColor=#FFFFFF;strokeColor=#FFFFFF;" edge="1" parent="1" source="129" target="65">
                    <mxGeometry relative="1" as="geometry"/>
                </mxCell>
                <mxCell id="140" style="edgeStyle=orthogonalEdgeStyle;shape=flexArrow;html=1;exitX=0;exitY=0.5;exitDx=0;exitDy=0;entryX=1;entryY=0.5;entryDx=0;entryDy=0;fontSize=40;fontColor=#FFFFFF;strokeColor=#FFFFFF;" edge="1" parent="1" source="129" target="68">
                    <mxGeometry relative="1" as="geometry"/>
                </mxCell>
                <mxCell id="141" style="edgeStyle=orthogonalEdgeStyle;shape=flexArrow;html=1;exitX=0;exitY=0.5;exitDx=0;exitDy=0;entryX=1;entryY=0.5;entryDx=0;entryDy=0;fontSize=40;fontColor=#FFFFFF;strokeColor=#FFFFFF;" edge="1" parent="1" source="129" target="67">
                    <mxGeometry relative="1" as="geometry"/>
                </mxCell>
                <mxCell id="142" style="edgeStyle=orthogonalEdgeStyle;shape=flexArrow;html=1;exitX=0;exitY=0.5;exitDx=0;exitDy=0;entryX=1;entryY=0.75;entryDx=0;entryDy=0;fontSize=40;fontColor=#FFFFFF;strokeColor=#FFFFFF;" edge="1" parent="1" source="129" target="66">
                    <mxGeometry relative="1" as="geometry"/>
                </mxCell>
                <mxCell id="129" value="&lt;b&gt;UserRepository&lt;br&gt;&lt;/b&gt;" style="rounded=0;whiteSpace=wrap;html=1;fontSize=20;fontColor=#FFFFFF;" vertex="1" parent="1">
                    <mxGeometry x="2570" y="-340" width="270" height="70" as="geometry"/>
                </mxCell>
                <mxCell id="147" style="edgeStyle=orthogonalEdgeStyle;shape=flexArrow;html=1;exitX=0;exitY=0.5;exitDx=0;exitDy=0;entryX=1;entryY=0.25;entryDx=0;entryDy=0;fontSize=40;fontColor=#FFFFFF;strokeColor=#FFFFFF;" edge="1" parent="1" source="130" target="76">
                    <mxGeometry relative="1" as="geometry"/>
                </mxCell>
                <mxCell id="150" style="edgeStyle=orthogonalEdgeStyle;shape=flexArrow;html=1;exitX=0;exitY=0.5;exitDx=0;exitDy=0;entryX=1;entryY=0.5;entryDx=0;entryDy=0;fontSize=40;fontColor=#FFFFFF;strokeColor=#FFFFFF;" edge="1" parent="1" source="130" target="78">
                    <mxGeometry relative="1" as="geometry"/>
                </mxCell>
                <mxCell id="151" style="edgeStyle=orthogonalEdgeStyle;shape=flexArrow;html=1;exitX=0;exitY=0.5;exitDx=0;exitDy=0;entryX=1;entryY=0.5;entryDx=0;entryDy=0;fontSize=40;fontColor=#FFFFFF;strokeColor=#FFFFFF;" edge="1" parent="1" source="130" target="77">
                    <mxGeometry relative="1" as="geometry"/>
                </mxCell>
                <mxCell id="130" value="&lt;b&gt;SecurityKeyRepository&lt;br&gt;&lt;/b&gt;" style="rounded=0;whiteSpace=wrap;html=1;fontSize=20;fontColor=#FFFFFF;" vertex="1" parent="1">
                    <mxGeometry x="2570" y="-255" width="270" height="70" as="geometry"/>
                </mxCell>
                <mxCell id="157" style="edgeStyle=orthogonalEdgeStyle;shape=flexArrow;html=1;exitX=0.25;exitY=1;exitDx=0;exitDy=0;entryX=1;entryY=0.25;entryDx=0;entryDy=0;fontSize=40;fontColor=#FFFFFF;strokeColor=#FFFFFF;" edge="1" parent="1" source="152" target="23">
                    <mxGeometry relative="1" as="geometry">
                        <Array as="points">
                            <mxPoint x="1708" y="-1250"/>
                            <mxPoint x="1010" y="-1250"/>
                            <mxPoint x="1010" y="-1010"/>
                        </Array>
                    </mxGeometry>
                </mxCell>
                <mxCell id="158" style="edgeStyle=orthogonalEdgeStyle;shape=flexArrow;html=1;exitX=0.25;exitY=1;exitDx=0;exitDy=0;entryX=1;entryY=0.25;entryDx=0;entryDy=0;fontSize=40;fontColor=#FFFFFF;strokeColor=#FFFFFF;" edge="1" parent="1" source="152" target="22">
                    <mxGeometry relative="1" as="geometry">
                        <Array as="points">
                            <mxPoint x="1708" y="-1250"/>
                            <mxPoint x="1010" y="-1250"/>
                            <mxPoint x="1010" y="-290"/>
                        </Array>
                    </mxGeometry>
                </mxCell>
                <mxCell id="159" style="edgeStyle=orthogonalEdgeStyle;shape=flexArrow;html=1;exitX=0.25;exitY=1;exitDx=0;exitDy=0;entryX=1;entryY=0.25;entryDx=0;entryDy=0;fontSize=40;fontColor=#FFFFFF;strokeColor=#FFFFFF;" edge="1" parent="1" source="152" target="24">
                    <mxGeometry relative="1" as="geometry">
                        <Array as="points">
                            <mxPoint x="1708" y="-1250"/>
                            <mxPoint x="1010" y="-1250"/>
                            <mxPoint x="1010" y="1040"/>
                        </Array>
                    </mxGeometry>
                </mxCell>
                <mxCell id="152" value="&lt;b&gt;AuthenticationMiddleware&lt;br&gt;&lt;/b&gt;" style="rounded=0;whiteSpace=wrap;html=1;fontSize=20;fontColor=#FFFFFF;" vertex="1" parent="1">
                    <mxGeometry x="1635.25" y="-1510" width="290" height="80" as="geometry"/>
                </mxCell>
                <mxCell id="168" style="edgeStyle=orthogonalEdgeStyle;shape=flexArrow;html=1;exitX=0.5;exitY=1;exitDx=0;exitDy=0;entryX=0.25;entryY=0;entryDx=0;entryDy=0;fontSize=40;fontColor=#FFFFFF;strokeColor=#FFFFFF;" edge="1" parent="1" source="163" target="9">
                    <mxGeometry relative="1" as="geometry">
                        <Array as="points">
                            <mxPoint x="1096" y="-1350"/>
                            <mxPoint x="50" y="-1350"/>
                        </Array>
                    </mxGeometry>
                </mxCell>
                <mxCell id="163" value="&lt;b&gt;EnvConfiguration&lt;br&gt;&lt;/b&gt;" style="rounded=0;whiteSpace=wrap;html=1;fontSize=20;fontColor=#FFFFFF;" vertex="1" parent="1">
                    <mxGeometry x="951" y="-1510" width="290" height="80" as="geometry"/>
                </mxCell>
                <mxCell id="165" style="edgeStyle=orthogonalEdgeStyle;shape=flexArrow;html=1;exitX=0.5;exitY=1;exitDx=0;exitDy=0;entryX=0.5;entryY=0;entryDx=0;entryDy=0;fontSize=40;fontColor=#FFFFFF;strokeColor=#FFFFFF;" edge="1" parent="1" source="164" target="163">
                    <mxGeometry relative="1" as="geometry"/>
                </mxCell>
                <mxCell id="164" value="&lt;b&gt;Dotenv&lt;br&gt;&lt;/b&gt;" style="rounded=0;whiteSpace=wrap;html=1;fontSize=20;fontColor=#FFFFFF;" vertex="1" parent="1">
                    <mxGeometry x="951" y="-1720" width="290" height="80" as="geometry"/>
                </mxCell>
            </root>
        </mxGraphModel>
    </diagram>
</mxfile>